# xmcd
#
# Track frame offsets: 
#        150
#        21951
#        30947
#        43677
#        54534
#        72741
#        89868
#        103536
#        117205
#        134443
#        148278
#        160652
#        175076
#        193235
#        216416
#        230914
#        246518
#        259394
#
# Disc length: 3641 seconds
#
# Revision: 1
# Processed by: cddbd v1.5.2PL0 Copyright (c) Steve Scherf et al.
# Submitted via: ExactAudioCopyFreeDBPlugin 1.0
#
DISCID=1f0e3712
DTITLE=Jonny Hill - Gold - 36 Starke Hits - CD1
DYEAR=1900
DGENRE=Country
TTITLE0=Ruf Teddybär eins-vier
TTITLE1=Ein Ring aus Feuer
TTITLE2=Green Green Grass Of Home
TTITLE3=Adios Amigo
TTITLE4=Sylvia's Mutter
TTITLE5=Wo der Mond versinkt
TTITLE6=Vaya Con Dios
TTITLE7=Carolyn
TTITLE8=Die Zeit wischt die Schminke aus jedem Gesicht
TTITLE9=Einmal noch nach Haus
TTITLE10=Erinnerungen an "Tom Dooley"
TTITLE11=Etwas Liebe am Abend
TTITLE12=Mach's gut mein treuer Freund
TTITLE13=Tommy und Strolch
TTITLE14=Wenn der Briefträger klingelt
TTITLE15=Wieviel braucht man zum Glücklichsein?
TTITLE16=Mein Lied für dich
TTITLE17=Jetzt sage ich euch gute Nacht
EXTD=
EXTT0=
EXTT1=
EXTT2=
EXTT3=
EXTT4=
EXTT5=
EXTT6=
EXTT7=
EXTT8=
EXTT9=
EXTT10=
EXTT11=
EXTT12=
EXTT13=
EXTT14=
EXTT15=
EXTT16=
EXTT17=
PLAYORDER=
